<svg width="30" height="30" viewBox="0 0 30 30" fill="none" xmlns="http://www.w3.org/2000/svg">
<circle cx="15" cy="15" r="15" fill="url(#paint0_linear_278_1459)"/>
<path fill-rule="evenodd" clip-rule="evenodd" d="M22.4399 13.1621C21.8928 13.1761 21.3761 13.3851 20.9886 13.7264C19.2563 12.6466 17.2276 12.0544 15.1382 12.0126L16.1259 7.66537L19.3779 8.29238C19.4691 9.05872 20.2137 9.60909 21.0494 9.52549C21.8852 9.44189 22.4855 8.75915 22.3943 7.99281C22.3031 7.22646 21.5585 6.67609 20.7227 6.75969C20.244 6.80149 19.811 7.05926 19.5754 7.44243L15.8524 6.75969C15.6017 6.71092 15.3433 6.85026 15.2902 7.08713C15.2902 7.08713 15.2902 7.08713 15.2902 7.09409L14.1657 11.929C12.0534 11.9569 9.99436 12.556 8.23922 13.6428C7.35026 12.8765 5.94463 12.9113 5.10125 13.7334C4.26547 14.5485 4.30346 15.8374 5.20003 16.6107C5.37478 16.757 5.57233 16.8894 5.80027 16.9799C5.78507 17.182 5.78507 17.391 5.80027 17.593C5.80027 20.7141 9.76642 23.25 14.6595 23.25C19.5526 23.25 23.5188 20.7141 23.5188 17.593C23.534 17.391 23.534 17.182 23.5188 16.9799C24.2786 16.6316 24.7649 15.907 24.7497 15.1268C24.6965 13.9981 23.6707 13.1203 22.4399 13.1621ZM9.54608 16.5131C9.54608 15.7468 10.2299 15.1198 11.0657 15.1198C11.9015 15.1198 12.5853 15.7468 12.5853 16.5131C12.5853 17.2795 11.9015 17.9065 11.0657 17.9065C10.2223 17.9065 9.54608 17.2865 9.54608 16.5131ZM18.3749 20.4006V20.3449C17.296 21.0903 15.974 21.4735 14.6215 21.4177C13.2691 21.4665 11.947 21.0903 10.8681 20.3449C10.7238 20.1846 10.7542 19.9478 10.9213 19.8154C11.0733 19.7039 11.286 19.7039 11.4456 19.8154C12.3573 20.4285 13.4742 20.742 14.6063 20.6932C15.7384 20.7489 16.8553 20.4494 17.7823 19.8433C17.9495 19.697 18.223 19.697 18.3825 19.8502C18.5421 20.0035 18.5421 20.2543 18.3749 20.4006ZM18.1622 18.011C18.1394 18.011 18.1166 18.011 18.0862 18.011L18.0938 17.9622C17.258 17.9622 16.5742 17.3352 16.5742 16.5689C16.5742 15.8025 17.258 15.1755 18.0938 15.1755C18.9296 15.1755 19.6134 15.8025 19.6134 16.5689C19.659 17.3352 19.0056 17.9831 18.1622 18.011Z" fill="#F7F7F7"/>
<defs>
<linearGradient id="paint0_linear_278_1459" x1="15" y1="0" x2="15" y2="30" gradientUnits="userSpaceOnUse">
<stop stop-color="#FC6734"/>
<stop offset="1" stop-color="#EB331A"/>
</linearGradient>
</defs>
</svg>
