<svg width="382" height="149" viewBox="0 0 382 149" fill="none" xmlns="http://www.w3.org/2000/svg">
<path d="M0.4 120.6V98.6L65.8 4.99999H98.4V96.2H116V120.6H98.4V149H70.4V120.6H0.4ZM72.2 35L31.2 96.2H72.2V35ZM135.827 74.2C135.827 51.1333 139.96 33.0667 148.227 20C156.627 6.93333 170.493 0.399994 189.827 0.399994C209.16 0.399994 222.96 6.93333 231.227 20C239.627 33.0667 243.827 51.1333 243.827 74.2C243.827 97.4 239.627 115.6 231.227 128.8C222.96 142 209.16 148.6 189.827 148.6C170.493 148.6 156.627 142 148.227 128.8C139.96 115.6 135.827 97.4 135.827 74.2ZM216.227 74.2C216.227 64.3333 215.56 56.0667 214.227 49.4C213.027 42.6 210.493 37.0667 206.627 32.8C202.893 28.5333 197.293 26.4 189.827 26.4C182.36 26.4 176.693 28.5333 172.827 32.8C169.093 37.0667 166.56 42.6 165.227 49.4C164.027 56.0667 163.427 64.3333 163.427 74.2C163.427 84.3333 164.027 92.8667 165.227 99.8C166.427 106.6 168.96 112.133 172.827 116.4C176.693 120.533 182.36 122.6 189.827 122.6C197.293 122.6 202.96 120.533 206.827 116.4C210.693 112.133 213.227 106.6 214.427 99.8C215.627 92.8667 216.227 84.3333 216.227 74.2ZM265.923 120.6V98.6L331.323 4.99999H363.923V96.2H381.523V120.6H363.923V149H335.923V120.6H265.923ZM337.723 35L296.723 96.2H337.723V35Z" fill="url(#paint0_linear_380_307)"/>
<defs>
<linearGradient id="paint0_linear_380_307" x1="389" y1="-177.667" x2="-172.063" y2="-89.6674" gradientUnits="userSpaceOnUse">
<stop stop-color="#12C2E9"/>
<stop offset="0.565619" stop-color="#C471ED"/>
<stop offset="1" stop-color="#F64F59"/>
</linearGradient>
</defs>
</svg>
