<svg width="1686" height="805" viewBox="0 0 1686 805" fill="none" xmlns="http://www.w3.org/2000/svg">
<path opacity="0.25" fill-rule="evenodd" clip-rule="evenodd" d="M982.162 2.30411L843.324 81.7246V241.275L982.162 320.696L1121.32 241.09V81.91L982.162 2.30411ZM982.162 0L842.162 80.0852L702.162 0L561.662 80.3712L421.162 0L281.162 80.0852L141.162 0L0 80.75V242.25L140 322.335V482.665L0 562.75V724.25L141.162 805L281.162 724.915L421.162 805L561.662 724.629L702.162 805L842.162 724.915L982.162 805L1122.66 724.629L1263.16 805L1403.66 724.629L1544.16 805L1685.32 724.25V562.75L1544.32 482.093V322.907L1685.32 242.25V80.75L1544.16 0L1403.66 80.3712L1263.16 0L1122.66 80.3712L982.162 0ZM1262 322.335L1122.66 242.629L982.162 323L842.162 242.915L702.162 323L561.662 242.629L422.324 322.335V482.665L561.662 562.371L702.162 482L842.162 562.085L982.162 482L1122.66 562.371L1262 482.665V322.335ZM702.162 2.30411L841 81.7246V241.275L702.162 320.696L563 241.09V81.91L702.162 2.30411ZM841 563.725V723.275L702.162 802.696L563 723.09V563.91L702.162 484.304L841 563.725ZM843.324 723.275V563.725L982.162 484.304L1121.32 563.91V723.09L982.162 802.696L843.324 723.275ZM280 723.275V563.725L141.162 484.304L2 563.91V723.09L141.162 802.696L280 723.275ZM282.324 563.725V723.275L421.162 802.696L560.324 723.09V563.91L421.162 484.304L282.324 563.725ZM421.162 320.696L282.324 241.275V81.7245L421.162 2.30411L560.324 81.91V241.09L421.162 320.696ZM280 241.275V81.7245L141.162 2.30411L2 81.91V241.09L141.162 320.696L280 241.275ZM1124 563.91L1263.16 484.304L1402.32 563.91V723.09L1263.16 802.696L1124 723.09V563.91ZM1544.16 484.304L1405 563.91V723.09L1544.16 802.696L1683.32 723.09V563.91L1544.16 484.304ZM1124 81.91L1263.16 2.30411L1402.32 81.91V241.09L1263.16 320.696L1124 241.09V81.91ZM1544.16 2.30411L1405 81.91V241.09L1544.16 320.696L1683.32 241.09V81.91L1544.16 2.30411ZM281.162 243.304L142 322.91V482.09L281.162 561.696L420.324 482.09V322.91L281.162 243.304ZM1403.16 243.304L1264 322.91V482.09L1403.16 561.696L1542.32 482.09V322.91L1403.16 243.304Z" fill="url(#paint0_linear_441_272)"/>
<defs>
<linearGradient id="paint0_linear_441_272" x1="846.694" y1="-167.548" x2="846.694" y2="889.737" gradientUnits="userSpaceOnUse">
<stop stop-color="#12C2E9"/>
<stop offset="0.565619" stop-color="#C471ED"/>
<stop offset="1" stop-color="#F64F59"/>
</linearGradient>
</defs>
</svg>
