<svg width="1127" height="859" viewBox="0 0 1127 859" fill="none" xmlns="http://www.w3.org/2000/svg">
<path opacity="0.25" fill-rule="evenodd" clip-rule="evenodd" d="M554.451 63.1164L645.731 10.9376L737.225 63.2383V167.819L645.731 220.119L554.451 167.941V63.1164ZM553.687 62.0394L645.731 9.42383L738.104 62.2273L830.477 9.42383L922.85 62.2273L1015.22 9.42383L1108.03 62.4762V168.581L1015.33 221.572V326.156L1108.03 379.148V485.252L1015.22 538.305L922.85 485.501L830.477 538.305L738.104 485.501L646.457 537.889V641.398L738.619 694.089V800.389L645.653 853.538L553.492 800.848L461.331 853.538L369.169 800.848L277.008 853.538L184.043 800.389V694.089L277.008 640.939L369.169 693.629L460.527 641.398V537.667L369.27 485.501L276.897 538.305L184.853 485.689L92.8083 538.305L0 485.252V379.148L92.0442 326.532V221.196L0 168.581V62.4762L92.8083 9.42383L184.853 62.0394L276.897 9.42383L369.27 62.2273L461.643 9.42383L553.687 62.0394ZM552.923 484.171L461.264 536.574L370.149 484.49V379.91L461.643 327.609L552.923 379.788V484.171ZM645.915 536.686L554.451 484.394V379.788L645.731 327.609L737.225 379.91V484.49L645.915 536.686ZM738.104 168.83L829.713 221.196V326.532L738.104 378.899L645.731 326.095L553.687 378.711L461.643 326.095L369.27 378.899L277.661 326.532V221.196L369.27 168.83L461.643 221.633L553.687 169.018L645.731 221.633L738.104 168.83ZM552.923 63.1164L461.643 10.9376L370.149 63.2383V167.819L461.643 220.119L552.923 167.941V63.1164ZM184.088 379.788V484.612L92.8083 536.791L1.31492 484.49V379.91L92.8083 327.609L184.088 379.788ZM185.617 484.612V379.788L276.897 327.609L368.39 379.91V484.49L276.897 536.791L185.617 484.612ZM185.617 167.941L276.897 220.119L368.39 167.819V63.2383L276.897 10.9376L185.617 63.1164V167.941ZM184.088 63.1164V167.941L92.8083 220.119L1.31492 167.819V63.2383L92.8083 10.9376L184.088 63.1164ZM830.477 327.609L738.984 379.91V484.49L830.477 536.791L921.97 484.49V379.91L830.477 327.609ZM923.73 379.91L1015.22 327.609L1106.72 379.91V484.49L1015.22 536.791L923.73 484.49V379.91ZM830.477 10.9376L738.984 63.2383V167.819L830.477 220.119L921.97 167.819V63.2383L830.477 10.9376ZM923.73 63.2383L1015.22 10.9376L1106.72 63.2383V167.819L1015.22 220.119L923.73 167.819V63.2383ZM93.3591 221.574L184.853 169.273L276.346 221.574V326.154L184.853 378.455L93.3591 326.154V221.574ZM831.028 221.574L922.521 169.273L1014.01 221.574V326.154L922.521 378.455L831.028 326.154V221.574ZM553.492 486.258L462.621 538.211V641.677L553.492 693.629L644.363 641.677V538.211L553.492 486.258ZM554.783 695.707L646.006 643.553L736.524 695.304V799.173L645.653 851.126L554.783 799.173V695.707ZM370.46 695.304L460.978 643.553L552.201 695.707V799.173L461.331 851.126L370.46 799.173V695.304ZM277.008 643.352L186.137 695.304V799.173L277.008 851.126L367.879 799.173V695.304L277.008 643.352Z" fill="url(#paint0_linear_517_319)"/>
<path d="M277.202 221.296L369.167 168.718L461.133 221.296V326.436L369.167 379.014L277.202 326.436V221.296Z" stroke="url(#paint1_linear_517_319)" stroke-width="2"/>
<rect y="611" width="1127" height="248" fill="url(#paint2_linear_517_319)"/>
<path d="M277.202 537.578L369.167 485L461.133 537.578V642.717L369.167 695.295L277.202 642.717V537.578Z" stroke="url(#paint3_linear_517_319)" stroke-width="2"/>
<path d="M369.366 379.437L461.331 326.859L553.297 379.437V484.577L461.331 537.155L369.366 484.577V379.437Z" stroke="url(#paint4_linear_517_319)" stroke-width="2"/>
<rect x="1127" y="137" width="1127" height="137" transform="rotate(-180 1127 137)" fill="url(#paint5_linear_517_319)"/>
<defs>
<linearGradient id="paint0_linear_517_319" x1="698.04" y1="280.788" x2="493.577" y2="985.82" gradientUnits="userSpaceOnUse">
<stop offset="0.111995" stop-color="#12C2E9"/>
<stop offset="0.536452" stop-color="#C471ED"/>
<stop offset="1" stop-color="#F64F59"/>
</linearGradient>
<linearGradient id="paint1_linear_517_319" x1="369.681" y1="123.317" x2="369.681" y2="402.545" gradientUnits="userSpaceOnUse">
<stop stop-color="#12C2E9"/>
<stop offset="0.565619" stop-color="#C471ED"/>
<stop offset="1" stop-color="#F64F59"/>
</linearGradient>
<linearGradient id="paint2_linear_517_319" x1="563.5" y1="611" x2="563.5" y2="859" gradientUnits="userSpaceOnUse">
<stop stop-color="#131112" stop-opacity="0"/>
<stop offset="0.588913" stop-color="#131112"/>
</linearGradient>
<linearGradient id="paint3_linear_517_319" x1="460.805" y1="367.075" x2="301.094" y2="737.815" gradientUnits="userSpaceOnUse">
<stop offset="0.111995" stop-color="#12C2E9"/>
<stop offset="0.536452" stop-color="#C471ED"/>
<stop offset="1" stop-color="#F64F59"/>
</linearGradient>
<linearGradient id="paint4_linear_517_319" x1="568.679" y1="509.506" x2="377.025" y2="337.751" gradientUnits="userSpaceOnUse">
<stop stop-color="#12C2E9"/>
<stop offset="0.565619" stop-color="#C471ED"/>
<stop offset="1" stop-color="#F64F59"/>
</linearGradient>
<linearGradient id="paint5_linear_517_319" x1="1690.5" y1="137" x2="1690.5" y2="274" gradientUnits="userSpaceOnUse">
<stop stop-color="#131112" stop-opacity="0"/>
<stop offset="0.773014" stop-color="#131112"/>
</linearGradient>
</defs>
</svg>
