<svg width="1109" height="845" viewBox="0 0 1109 845" fill="none" xmlns="http://www.w3.org/2000/svg">
<path opacity="0.25" fill-rule="evenodd" clip-rule="evenodd" d="M554.451 53.6926L645.731 1.51378L737.225 53.8145V158.395L645.731 210.696L554.451 158.517V53.6926ZM553.687 52.6156L645.731 0L738.104 52.8035L830.477 0L922.85 52.8035L1015.22 0L1108.03 53.0523V159.157L1015.33 212.148V316.732L1108.03 369.724V475.828L1015.22 528.881L922.85 476.077L830.477 528.881L738.104 476.077L646.457 528.466V631.975L738.619 684.665V790.965L645.653 844.115L553.492 791.424L461.331 844.115L369.169 791.424L277.008 844.115L184.043 790.965V684.665L277.008 631.515L369.169 684.205L460.527 631.975V528.243L369.27 476.077L276.897 528.881L184.853 476.265L92.8083 528.881L0 475.828V369.724L92.0442 317.108V211.773L0 159.157V53.0523L92.8083 0L184.853 52.6156L276.897 0L369.27 52.8035L461.643 0L553.687 52.6156ZM552.923 474.747L461.264 527.15L370.149 475.066V370.486L461.643 318.185L552.923 370.364V474.747ZM645.915 527.262L554.451 474.97V370.364L645.731 318.185L737.225 370.486V475.066L645.915 527.262ZM738.104 159.406L829.713 211.773V317.108L738.104 369.475L645.731 316.671L553.687 369.287L461.643 316.671L369.27 369.475L277.661 317.108V211.773L369.27 159.406L461.643 212.209L553.687 159.594L645.731 212.209L738.104 159.406ZM552.923 53.6926L461.643 1.51378L370.149 53.8145V158.395L461.643 210.696L552.923 158.517V53.6926ZM184.088 370.364V475.188L92.8083 527.367L1.31492 475.066V370.486L92.8083 318.185L184.088 370.364ZM185.617 475.188V370.364L276.897 318.185L368.39 370.486V475.066L276.897 527.367L185.617 475.188ZM185.617 158.517L276.897 210.696L368.39 158.395V53.8145L276.897 1.51378L185.617 53.6926V158.517ZM184.088 53.6926V158.517L92.8083 210.696L1.31492 158.395V53.8145L92.8083 1.51378L184.088 53.6926ZM830.477 318.185L738.984 370.486V475.066L830.477 527.367L921.97 475.066V370.486L830.477 318.185ZM923.73 370.486L1015.22 318.185L1106.72 370.486V475.066L1015.22 527.367L923.73 475.066V370.486ZM830.477 1.51378L738.984 53.8145V158.395L830.477 210.696L921.97 158.395V53.8145L830.477 1.51378ZM923.73 53.8145L1015.22 1.51378L1106.72 53.8145V158.395L1015.22 210.696L923.73 158.395V53.8145ZM93.3591 212.15L184.853 159.85L276.346 212.15V316.731L184.853 369.031L93.3591 316.731V212.15ZM831.028 212.15L922.521 159.85L1014.01 212.15V316.731L922.521 369.031L831.028 316.731V212.15ZM553.492 476.834L462.621 528.787V632.253L553.492 684.205L644.363 632.253V528.787L553.492 476.834ZM554.783 686.283L646.006 634.129L736.524 685.88V789.75L645.653 841.702L554.783 789.75V686.283ZM370.46 685.88L460.978 634.129L552.201 686.283V789.75L461.331 841.702L370.46 789.75V685.88ZM277.008 633.928L186.137 685.88V789.75L277.008 841.702L367.879 789.75V685.88L277.008 633.928Z" fill="url(#paint0_linear_440_265)"/>
<defs>
<linearGradient id="paint0_linear_440_265" x1="698.04" y1="271.364" x2="493.577" y2="976.396" gradientUnits="userSpaceOnUse">
<stop offset="0.111995" stop-color="#12C2E9"/>
<stop offset="0.536452" stop-color="#C471ED"/>
<stop offset="1" stop-color="#F64F59"/>
</linearGradient>
</defs>
</svg>
