<svg width="1440" height="847" viewBox="0 0 1440 847" fill="none" xmlns="http://www.w3.org/2000/svg">
<path opacity="0.25" fill-rule="evenodd" clip-rule="evenodd" d="M860.162 16.3041L721.324 95.7246V255.275L860.162 334.696L999.324 255.09V95.91L860.162 16.3041ZM860.162 14L720.162 94.0852L580.162 14L439.662 94.3712L299.162 14L159.162 94.0852L19.1621 14L-122 94.75V256.25L18 336.335V496.665L-122 576.75V738.25L19.1621 819L159.162 738.915L299.162 819L439.662 738.629L580.162 819L720.162 738.915L860.162 819L1000.66 738.629L1141.16 819L1281.66 738.629L1422.16 819L1563.32 738.25V576.75L1422.32 496.093V336.907L1563.32 256.25V94.75L1422.16 14L1281.66 94.3712L1141.16 14L1000.66 94.3712L860.162 14ZM1140 336.335L1000.66 256.629L860.162 337L720.162 256.915L580.162 337L439.662 256.629L300.324 336.335V496.665L439.662 576.371L580.162 496L720.162 576.085L860.162 496L1000.66 576.371L1140 496.665V336.335ZM580.162 16.3041L719 95.7246V255.275L580.162 334.696L441 255.09V95.91L580.162 16.3041ZM719 577.725V737.275L580.162 816.696L441 737.09V577.91L580.162 498.304L719 577.725ZM721.324 737.275V577.725L860.162 498.304L999.324 577.91V737.09L860.162 816.696L721.324 737.275ZM158 737.275V577.725L19.1621 498.304L-120 577.91V737.09L19.1621 816.696L158 737.275ZM160.324 577.725V737.275L299.162 816.696L438.324 737.09V577.91L299.162 498.304L160.324 577.725ZM299.162 334.696L160.324 255.275V95.7245L299.162 16.3041L438.324 95.91V255.09L299.162 334.696ZM158 255.275V95.7245L19.1621 16.3041L-120 95.91V255.09L19.1621 334.696L158 255.275ZM1002 577.91L1141.16 498.304L1280.32 577.91V737.09L1141.16 816.696L1002 737.09V577.91ZM1422.16 498.304L1283 577.91V737.09L1422.16 816.696L1561.32 737.09V577.91L1422.16 498.304ZM1002 95.91L1141.16 16.3041L1280.32 95.91V255.09L1141.16 334.696L1002 255.09V95.91ZM1422.16 16.3041L1283 95.91V255.09L1422.16 334.696L1561.32 255.09V95.91L1422.16 16.3041ZM159.162 257.304L20 336.91V496.09L159.162 575.696L298.324 496.09V336.91L159.162 257.304ZM1281.16 257.304L1142 336.91V496.09L1281.16 575.696L1420.32 496.09V336.91L1281.16 257.304Z" fill="url(#paint0_linear_519_327)"/>
<rect x="-3.83789" y="638" width="1445" height="209" fill="url(#paint1_linear_519_327)"/>
<rect x="1441.16" y="209" width="1445" height="209" transform="rotate(-180 1441.16 209)" fill="url(#paint2_linear_519_327)"/>
<path d="M299 336.33L439.162 256.152L579.324 336.33V496.67L439.162 576.848L299 496.67V336.33Z" stroke="url(#paint3_linear_519_327)" stroke-width="2"/>
<path d="M580 336.33L720.162 256.152L860.324 336.33V496.67L720.162 576.848L580 496.67V336.33Z" stroke="url(#paint4_linear_519_327)" stroke-width="2"/>
<path d="M861 336.33L1001.16 256.152L1141.32 336.33V496.67L1001.16 576.848L861 496.67V336.33Z" stroke="url(#paint5_linear_519_327)" stroke-width="2"/>
<defs>
<linearGradient id="paint0_linear_519_327" x1="724.694" y1="-153.548" x2="724.694" y2="903.737" gradientUnits="userSpaceOnUse">
<stop stop-color="#12C2E9"/>
<stop offset="0.565619" stop-color="#C471ED"/>
<stop offset="1" stop-color="#F64F59"/>
</linearGradient>
<linearGradient id="paint1_linear_519_327" x1="718.662" y1="638" x2="718.662" y2="847" gradientUnits="userSpaceOnUse">
<stop stop-color="#131112" stop-opacity="0"/>
<stop offset="0.773014" stop-color="#131112"/>
</linearGradient>
<linearGradient id="paint2_linear_519_327" x1="2163.66" y1="209" x2="2163.66" y2="418" gradientUnits="userSpaceOnUse">
<stop stop-color="#131112" stop-opacity="0"/>
<stop offset="0.773014" stop-color="#131112"/>
</linearGradient>
<linearGradient id="paint3_linear_519_327" x1="439.942" y1="187.773" x2="439.942" y2="612" gradientUnits="userSpaceOnUse">
<stop stop-color="#12C2E9"/>
<stop offset="0.565619" stop-color="#C471ED"/>
<stop offset="1" stop-color="#F64F59"/>
</linearGradient>
<linearGradient id="paint4_linear_519_327" x1="720.942" y1="187.773" x2="720.942" y2="612" gradientUnits="userSpaceOnUse">
<stop stop-color="#12C2E9"/>
<stop offset="0.565619" stop-color="#C471ED"/>
<stop offset="1" stop-color="#F64F59"/>
</linearGradient>
<linearGradient id="paint5_linear_519_327" x1="1001.94" y1="187.773" x2="1001.94" y2="612" gradientUnits="userSpaceOnUse">
<stop stop-color="#12C2E9"/>
<stop offset="0.565619" stop-color="#C471ED"/>
<stop offset="1" stop-color="#F64F59"/>
</linearGradient>
</defs>
</svg>
