<svg width="30" height="30" viewBox="0 0 30 30" fill="none" xmlns="http://www.w3.org/2000/svg">
<circle cx="15" cy="15" r="15" fill="url(#paint0_linear_278_1462)"/>
<path fill-rule="evenodd" clip-rule="evenodd" d="M22.4315 9.89627C21.8056 9.2134 21.0972 9.2134 20.7808 9.17072C18.4699 9 15.0034 9 15.0034 9H14.9966C14.9966 9 11.5301 9 9.21915 9.17072C8.89589 9.2134 8.19435 9.2134 7.56847 9.89627C7.07326 10.4155 6.91507 11.5892 6.91507 11.5892C6.91507 11.5892 6.75 12.9692 6.75 14.3491V15.6437C6.75 17.0237 6.91507 18.4037 6.91507 18.4037C6.91507 18.4037 7.07326 19.5774 7.56847 20.0966C8.19435 20.7795 9.0197 20.7582 9.3911 20.8293C10.7117 20.9573 15.0034 21 15.0034 21C15.0034 21 18.4699 20.9929 20.7808 20.8222C21.1041 20.7795 21.8056 20.7795 22.4315 20.0966C22.9267 19.5774 23.0849 18.4037 23.0849 18.4037C23.0849 18.4037 23.25 17.0237 23.25 15.6437V14.3491C23.25 12.9692 23.0849 11.5892 23.0849 11.5892C23.0849 11.5892 22.9267 10.4155 22.4315 9.89627ZM13.2977 17.2158V12.4215L17.7546 14.8257L13.2977 17.2158Z" fill="#F7F7F7"/>
<defs>
<linearGradient id="paint0_linear_278_1462" x1="15" y1="0" x2="15" y2="30" gradientUnits="userSpaceOnUse">
<stop stop-color="#FC6865"/>
<stop offset="1" stop-color="#E62124"/>
</linearGradient>
</defs>
</svg>
