<svg width="30" height="30" viewBox="0 0 30 30" fill="none" xmlns="http://www.w3.org/2000/svg">
<circle cx="15" cy="15" r="15" fill="url(#paint0_linear_278_1469)"/>
<path fill-rule="evenodd" clip-rule="evenodd" d="M18.633 7.11626L18.5986 6.75H15.5986L15.5711 18.621C15.5711 19.1812 15.344 19.7055 14.9312 20.1076C14.5252 20.5026 13.9748 20.7252 13.4243 20.7252C12.2959 20.7252 11.3807 19.7701 11.3807 18.5923C11.3807 17.4145 12.2959 16.4594 13.4243 16.4594C13.4725 16.4594 13.5275 16.4666 13.5895 16.4738C13.617 16.481 13.6445 16.481 13.672 16.4881L14.1124 16.5456V13.2421L13.7408 13.2205C13.6307 13.2134 13.5138 13.2062 13.4037 13.2062C10.5619 13.2062 8.25 15.6264 8.25 18.5995C8.25 21.5726 10.5688 24 13.4243 24C16.2729 24 18.5986 21.5798 18.5986 18.5995V12.9692C18.8807 13.2421 19.2041 13.4791 19.5413 13.673C20.305 14.1039 21.2133 14.3552 22.1284 14.269L22.5 14.226V10.6998L22.1353 10.6711C20.305 10.5203 18.8257 9.02654 18.633 7.11626Z" fill="#F7F7F7"/>
<defs>
<linearGradient id="paint0_linear_278_1469" x1="15" y1="0" x2="15" y2="30" gradientUnits="userSpaceOnUse">
<stop stop-color="#5E5E5E"/>
<stop offset="1" stop-color="#282828"/>
</linearGradient>
</defs>
</svg>
