<svg width="30" height="30" viewBox="0 0 30 30" fill="none" xmlns="http://www.w3.org/2000/svg">
<circle cx="15" cy="15" r="15" fill="url(#paint0_linear_278_1455)"/>
<path fill-rule="evenodd" clip-rule="evenodd" d="M22.7798 8.49564C22.1271 8.88165 21.4042 9.16238 20.6322 9.31678C20.0146 8.65706 19.1373 8.25 18.1617 8.25C16.2949 8.25 14.7789 9.76595 14.7789 11.6328C14.7789 11.8995 14.807 12.1592 14.8702 12.4048C12.0558 12.2645 9.56433 10.917 7.89398 8.86761C7.60623 9.36591 7.43779 9.94843 7.43779 10.566C7.43779 11.7381 8.03435 12.7768 8.94672 13.3804C8.39228 13.3663 7.87293 13.2119 7.41674 12.9593C7.41674 12.9733 7.41674 12.9873 7.41674 13.0014C7.41674 14.6437 8.58177 16.0052 10.1328 16.321C9.85208 16.3982 9.5503 16.4403 9.24149 16.4403C9.02393 16.4403 8.81338 16.4193 8.60283 16.3772C9.03094 17.7247 10.2802 18.7002 11.7611 18.7283C10.603 19.6337 9.14324 20.1741 7.5571 20.1741C7.28339 20.1741 7.0167 20.16 6.75 20.1249C8.2449 21.0865 10.0275 21.6479 11.9365 21.6479C18.1617 21.6479 21.5656 16.4895 21.5656 12.0188C21.5656 11.8714 21.5656 11.7241 21.5586 11.5837C22.2183 11.1064 22.7938 10.5099 23.25 9.82912C22.6464 10.0958 21.9937 10.2783 21.3059 10.3625C21.9937 9.94843 22.5271 9.28871 22.7798 8.49564Z" fill="#F7F7F7"/>
<defs>
<linearGradient id="paint0_linear_278_1455" x1="15" y1="0" x2="15" y2="30" gradientUnits="userSpaceOnUse">
<stop stop-color="#4BC7FC"/>
<stop offset="1" stop-color="#178CDB"/>
</linearGradient>
</defs>
</svg>
