<svg width="30" height="30" viewBox="0 0 30 30" fill="none" xmlns="http://www.w3.org/2000/svg">
<circle cx="15" cy="15" r="15" fill="url(#paint0_linear_278_1452)"/>
<path fill-rule="evenodd" clip-rule="evenodd" d="M19.6685 9.10644C19.6685 9.10644 16.5264 10.2937 15.5997 10.6659L6.21497 14.2212C4.56376 14.8116 5.53219 15.3699 5.53219 15.3699C5.53219 15.3699 6.93956 15.8127 8.15184 16.1464C9.35716 16.4802 10.0051 16.1079 10.0051 16.1079L15.6833 12.5911C17.6968 11.3269 17.2161 12.3665 16.7284 12.8158C15.6833 13.7784 13.9485 15.2993 12.4993 16.5251C11.8584 17.0449 12.1789 17.4877 12.4575 17.7123C13.5026 18.5273 16.3661 20.1959 16.5264 20.3114C16.7284 20.459 17.8571 21.1264 18.5399 20.9788C19.2226 20.8312 19.3063 19.9777 19.3063 19.9777L20.3095 14.1506C20.63 12.1868 20.9505 10.3643 20.9923 9.84446C21.1177 8.58662 19.6685 9.10644 19.6685 9.10644Z" fill="#F7F7F7"/>
<defs>
<linearGradient id="paint0_linear_278_1452" x1="15" y1="0" x2="15" y2="30" gradientUnits="userSpaceOnUse">
<stop stop-color="#4BD7FB"/>
<stop offset="1" stop-color="#1589B5"/>
</linearGradient>
</defs>
</svg>
