<svg width="72" height="72" viewBox="0 0 72 72" fill="none" xmlns="http://www.w3.org/2000/svg">
<circle cx="36" cy="36" r="36" fill="#C01313"/>
<path fill-rule="evenodd" clip-rule="evenodd" d="M22.8104 22.8107C23.3962 22.2249 24.346 22.2249 24.9318 22.8107L49.3269 47.2058C49.9127 47.7916 49.9127 48.7414 49.3269 49.3272C48.7412 49.913 47.7914 49.9129 47.2056 49.3272L22.8104 24.932C22.2246 24.3462 22.2246 23.3964 22.8104 22.8107Z" fill="white"/>
<path fill-rule="evenodd" clip-rule="evenodd" d="M49.328 22.8104C49.9138 23.3962 49.9138 24.346 49.328 24.9318L24.9328 49.3269C24.347 49.9127 23.3973 49.9127 22.8115 49.3269C22.2257 48.7411 22.2257 47.7914 22.8115 47.2056L47.2067 22.8104C47.7925 22.2246 48.7422 22.2246 49.328 22.8104Z" fill="white"/>
</svg>
