<svg width="319" height="276" viewBox="0 0 319 276" fill="none" xmlns="http://www.w3.org/2000/svg">
<g clip-path="url(#clip0_278_847)">
<path fill-rule="evenodd" clip-rule="evenodd" d="M152.695 -52.6454L88.6664 -16.0185V57.5628L152.695 94.1898L216.874 57.4773V-15.9329L152.695 -52.6454ZM152.695 -53.708L88.1305 -16.7745L23.5656 -53.708L-41.2299 -16.6426L-106.025 -53.708L-170.59 -16.7745L-235.155 -53.708L-300.256 -16.4679V58.0123L-235.691 94.9458V168.886L-300.256 205.82V280.3L-235.155 317.54L-170.59 280.607L-106.025 317.54L-41.2299 280.475L23.5656 317.54L88.1305 280.607L152.695 317.54L217.491 280.475L282.286 317.54L347.082 280.475L411.877 317.54L476.978 280.3V205.82L411.952 168.622V95.2096L476.978 58.0123V-16.4679L411.877 -53.708L347.082 -16.6426L282.286 -53.708L217.491 -16.6426L152.695 -53.708ZM-41.2299 58.187L23.0297 94.9458V168.886L-41.2299 205.645L-105.489 168.886V94.9458L-41.2299 58.187ZM23.5656 -52.6454L87.5945 -16.0185V57.5628L23.5656 94.1898L-40.6128 57.4773V-15.9329L23.5656 -52.6454ZM87.5945 206.269V279.85L23.5656 316.477L-40.6128 279.765V206.355L23.5656 169.642L87.5945 206.269ZM88.6664 279.85V206.269L152.695 169.642L216.874 206.355V279.765L152.695 316.477L88.6664 279.85ZM-171.126 279.85V206.269L-235.155 169.642L-299.334 206.355V279.765L-235.155 316.477L-171.126 279.85ZM-170.054 206.269V279.85L-106.025 316.477L-41.8468 279.765V206.355L-106.025 169.642L-170.054 206.269ZM-106.025 94.1898L-170.054 57.5629V-16.0185L-106.025 -52.6454L-41.8468 -15.9329V57.4773L-106.025 94.1898ZM-171.126 57.5629V-16.0185L-235.155 -52.6454L-299.334 -15.9329V57.4773L-235.155 94.1898L-171.126 57.5629ZM218.108 206.355L282.286 169.642L346.465 206.355V279.765L282.286 316.477L218.108 279.765V206.355ZM411.877 169.642L347.699 206.355V279.765L411.877 316.477L476.056 279.765V206.355L411.877 169.642ZM218.108 -15.9329L282.286 -52.6454L346.465 -15.9329V57.4773L282.286 94.1898L218.108 57.4773V-15.9329ZM411.877 -52.6454L347.699 -15.9329V57.4773L411.877 94.1898L476.056 57.4773V-15.9329L411.877 -52.6454ZM-170.59 58.4984L-234.769 95.2109V168.621L-170.59 205.334L-106.412 168.621V95.2109L-170.59 58.4984ZM282.822 95.1254L346.851 58.4984L411.03 95.2109V168.621L346.851 205.334L282.822 168.707V95.1254ZM88.1305 58.9302L24.3269 95.4283V168.404L88.1305 204.902L151.934 168.404V95.4283L88.1305 58.9302ZM153.918 95.4283L217.721 58.9302L281.525 95.4283V168.404L217.721 204.902L153.918 168.404V95.4283Z" fill="url(#paint0_linear_278_847)"/>
<rect x="469" y="90" width="934" height="134" transform="rotate(-180 469 90)" fill="url(#paint1_linear_278_847)"/>
<rect x="-465" y="175" width="934" height="156" fill="url(#paint2_linear_278_847)"/>
<rect x="435.26" y="-127" width="444.291" height="900.258" transform="rotate(90 435.26 -127)" fill="url(#paint3_linear_278_847)"/>
</g>
<defs>
<linearGradient id="paint0_linear_278_847" x1="90.2205" y1="-130.977" x2="90.2205" y2="356.619" gradientUnits="userSpaceOnUse">
<stop stop-color="#12C2E9"/>
<stop offset="0.565619" stop-color="#C471ED"/>
<stop offset="1" stop-color="#F64F59"/>
</linearGradient>
<linearGradient id="paint1_linear_278_847" x1="936" y1="90" x2="936" y2="224" gradientUnits="userSpaceOnUse">
<stop stop-color="#131112" stop-opacity="0"/>
<stop offset="0.773014" stop-color="#131112"/>
</linearGradient>
<linearGradient id="paint2_linear_278_847" x1="2" y1="175" x2="2" y2="331" gradientUnits="userSpaceOnUse">
<stop stop-color="#131112" stop-opacity="0"/>
<stop offset="0.773014" stop-color="#131112"/>
</linearGradient>
<linearGradient id="paint3_linear_278_847" x1="657.73" y1="-170.456" x2="657.405" y2="773.258" gradientUnits="userSpaceOnUse">
<stop stop-color="#131112" stop-opacity="0"/>
<stop offset="0.773014" stop-color="#131112"/>
</linearGradient>
<clipPath id="clip0_278_847">
<rect width="319" height="276" fill="white"/>
</clipPath>
</defs>
</svg>
