<svg width="1440" height="777" viewBox="0 0 1440 777" fill="none" xmlns="http://www.w3.org/2000/svg">
<path fill-rule="evenodd" clip-rule="evenodd" d="M952.352 115.634L853.633 172.105V285.551L952.352 342.022L1051.3 285.419V172.237L952.352 115.634ZM952.352 113.996L852.807 170.939L753.262 113.996L653.361 171.143L553.461 113.996L453.916 170.939L354.371 113.996L254 171.412V286.244L353.545 343.188V457.188L254 514.131V628.963L354.371 686.379L453.916 629.436L553.461 686.379L653.361 629.232L753.262 686.379L852.807 629.436L952.352 686.379L1052.25 629.232L1152.15 686.379L1252.05 629.232L1351.95 686.379L1452.32 628.963V514.131L1352.07 456.781V343.594L1452.32 286.244V171.412L1351.95 113.996L1252.05 171.143L1152.15 113.996L1052.25 171.143L952.352 113.996ZM653.361 286.514L752.435 343.188V457.188L653.361 513.862L554.287 457.188V343.188L653.361 286.514ZM753.262 115.634L851.98 172.105V285.551L753.262 342.022L654.313 285.419V172.237L753.262 115.634ZM851.98 514.824V628.27L753.262 684.741L654.313 628.138V514.956L753.262 458.353L851.98 514.824ZM853.633 628.27V514.824L952.352 458.353L1051.3 514.956V628.138L952.352 684.741L853.633 628.27ZM453.09 628.27V514.824L354.371 458.353L255.422 514.956V628.138L354.371 684.741L453.09 628.27ZM454.742 514.824V628.27L553.461 684.741L652.41 628.138V514.956L553.461 458.353L454.742 514.824ZM553.461 342.022L454.742 285.551V172.105L553.461 115.634L652.41 172.237V285.419L553.461 342.022ZM453.09 285.551V172.105L354.371 115.634L255.422 172.237V285.419L354.371 342.022L453.09 285.551ZM1053.2 514.956L1152.15 458.353L1251.1 514.956V628.138L1152.15 684.741L1053.2 628.138V514.956ZM1351.95 458.353L1253 514.956V628.138L1351.95 684.741L1450.9 628.138V514.956L1351.95 458.353ZM1053.2 172.237L1152.15 115.634L1251.1 172.237V285.419L1152.15 342.022L1053.2 285.419V172.237ZM1351.95 115.634L1253 172.237V285.419L1351.95 342.022L1450.9 285.419V172.237L1351.95 115.634ZM453.916 286.994L354.967 343.596V456.779L453.916 513.381L552.865 456.779V343.596L453.916 286.994ZM1152.98 343.465L1251.7 286.994L1350.65 343.596V456.779L1251.7 513.381L1152.98 456.911V343.465ZM852.807 287.66L754.435 343.932V456.444L852.807 512.716L951.178 456.444V343.932L852.807 287.66ZM954.236 343.932L1052.61 287.66L1150.98 343.932V456.444L1052.61 512.716L954.236 456.444V343.932Z" fill="url(#paint0_linear_179_491)"/>
<rect x="1440" y="558.996" width="1440" height="558" transform="rotate(-180 1440 558.996)" fill="url(#paint1_linear_179_491)"/>
<rect y="364.996" width="1440" height="412" fill="url(#paint2_linear_179_491)"/>
<rect x="1388" y="0.996094" width="685" height="1388" transform="rotate(90 1388 0.996094)" fill="url(#paint3_linear_179_491)"/>
<defs>
<linearGradient id="paint0_linear_179_491" x1="856.029" y1="-5.13626" x2="856.029" y2="746.63" gradientUnits="userSpaceOnUse">
<stop stop-color="#12C2E9"/>
<stop offset="0.565619" stop-color="#C471ED"/>
<stop offset="1" stop-color="#F64F59"/>
</linearGradient>
<linearGradient id="paint1_linear_179_491" x1="2160" y1="558.996" x2="2160" y2="1117" gradientUnits="userSpaceOnUse">
<stop stop-color="#131112" stop-opacity="0"/>
<stop offset="0.773014" stop-color="#131112"/>
</linearGradient>
<linearGradient id="paint2_linear_179_491" x1="720" y1="364.996" x2="720" y2="776.996" gradientUnits="userSpaceOnUse">
<stop stop-color="#131112" stop-opacity="0"/>
<stop offset="0.773014" stop-color="#131112"/>
</linearGradient>
<linearGradient id="paint3_linear_179_491" x1="1731" y1="-66.0039" x2="1730.5" y2="1389" gradientUnits="userSpaceOnUse">
<stop stop-color="#131112" stop-opacity="0"/>
<stop offset="0.773014" stop-color="#131112"/>
</linearGradient>
</defs>
</svg>
