<svg width="1440" height="507" viewBox="0 0 1440 507" fill="none" xmlns="http://www.w3.org/2000/svg"><mask id="a" style="mask-type:alpha" maskUnits="userSpaceOnUse" x="0" y="0" width="1440" height="507"><path fill="#252324" d="M0 0h1440v507H0z"/></mask><g opacity=".7" mask="url(#a)"><path opacity=".034" d="M829.123 194.191 1095.2 27.392l277.49 147.033 11.42 313.831-266.08 166.799-277.495-147.033-11.412-313.831Z" stroke="url(#b)"/><path opacity=".069" d="M854.717 171.162 1134.32 28.188l263.62 170.659-15.98 313.632-279.61 142.973-263.617-170.658 15.984-313.632Z" stroke="url(#c)"/><path opacity=".103" d="m882.319 149.431 291.001-118.06 247.75 192.985-43.26 311.045-291 118.061-247.749-192.985 43.258-311.046Z" stroke="url(#d)"/><path opacity=".138" d="m911.806 129.171 300.184-92.248 229.98 213.843-70.2 306.091-300.18 92.249-229.987-213.843 70.203-306.092Z" stroke="url(#e)"/><path opacity=".172" d="m943.041 110.539 307.079-65.735 210.47 233.073-96.61 298.808-307.08 65.735-210.472-233.073 96.613-298.808Z" stroke="url(#f)"/><path opacity=".207" d="m975.884 93.68 311.646-38.721 189.35 250.53-122.29 289.251-311.64 38.721L853.596 382.93 975.884 93.68Z" stroke="url(#g)"/><path opacity=".241" d="M1010.16 78.728 1324 67.316l166.79 266.08-147.03 277.492-313.83 11.412-166.799-266.08L1010.16 78.728Z" stroke="url(#h)"/><path opacity=".276" d="m1045.71 65.798 313.63 15.984 142.98 279.605-170.66 263.621-313.63-15.983-142.977-279.606 170.657-263.62Z" stroke="url(#i)"/><path opacity=".31" d="m1082.35 55 311.05 43.258 118.06 291.002-192.99 247.744-311.04-43.257-118.065-291.002L1082.35 55Z" stroke="url(#j)"/><path opacity=".345" d="m1119.89 46.415 306.09 70.203 92.25 300.184-213.85 229.982-306.088-70.202-92.248-300.185L1119.89 46.415Z" stroke="url(#k)"/><path opacity=".379" d="m1158.12 40.115 298.81 96.613 65.74 307.082-233.08 210.469-298.805-96.613-65.735-307.082 233.07-210.47Z" stroke="url(#l)"/><path opacity=".414" d="m1196.86 36.152 289.25 122.288 38.73 311.643-250.53 189.354-289.255-122.288-38.721-311.642L1196.86 36.152Z" stroke="url(#m)"/><path opacity=".448" d="m1235.9 34.561 277.49 147.033 11.41 313.831-266.08 166.799-277.492-147.033-11.412-313.831L1235.9 34.561Z" stroke="url(#n)"/><path opacity=".483" d="m1275.02 35.358 263.62 170.658-15.99 313.632-279.6 142.973-263.624-170.658 15.984-313.632 279.61-142.973Z" stroke="url(#o)"/><path opacity=".517" d="m1314.02 38.542 247.74 192.986-43.26 311.045-291 118.06-247.744-192.985 43.254-311.045 291.01-118.06Z" stroke="url(#p)"/><path opacity=".552" d="m1352.68 44.094 229.99 213.843-70.21 306.092-300.18 92.248-229.983-213.843 70.203-306.091 300.18-92.249Z" stroke="url(#q)"/><path opacity=".586" d="m1390.82 51.974 210.47 233.074-96.62 298.808-307.08 65.735-210.467-233.074 96.617-298.808 307.08-65.735Z" stroke="url(#r)"/><path opacity=".621" d="m1428.22 62.129 189.35 250.53-122.29 289.251-311.64 38.72L994.287 390.1l122.293-289.251 311.64-38.72Z" stroke="url(#s)"/><path opacity=".655" d="m1464.69 74.485 166.8 266.08-147.04 277.492-313.83 11.412-166.8-266.08 147.04-277.492 313.83-11.412Z" stroke="url(#t)"/><path opacity=".69" d="m1500.04 88.954 142.97 279.605-170.66 263.621-313.63-15.983-142.97-279.605L1186.4 72.97l313.64 15.984Z" stroke="url(#u)"/><path opacity=".724" d="m1534.09 105.428 118.06 291.002-192.99 247.745-311.04-43.258-118.06-291.002L1223.04 62.17l311.05 43.258Z" stroke="url(#v)"/><path opacity=".759" d="m1566.67 123.789 92.25 300.184-213.84 229.982-306.1-70.202-92.24-300.185 213.84-229.981 306.09 70.202Z" stroke="url(#w)"/><path opacity=".793" d="m1597.62 143.899 65.74 307.082-233.07 210.469-298.81-96.613-65.74-307.082 233.08-210.47 298.8 96.614Z" stroke="url(#x)"/><path opacity=".828" d="m1626.81 165.61 38.72 311.643L1415 666.608l-289.25-122.289-38.72-311.642 250.53-189.355 289.25 122.288Z" stroke="url(#y)"/><path opacity=".862" d="m1654.08 188.764 11.41 313.831-266.08 166.799-277.49-147.033-11.41-313.831 266.08-166.8 277.49 147.034Z" stroke="url(#z)"/><path opacity=".897" d="m1679.33 213.186-15.98 313.632-279.61 142.973-263.62-170.658 15.99-313.632 279.6-142.974 263.62 170.659Z" stroke="url(#A)"/><path opacity=".931" d="m1702.45 238.696-43.26 311.045-291 118.061-247.74-192.985 43.25-311.045 291.01-118.06 247.74 192.984Z" stroke="url(#B)"/><path opacity=".966" d="m1723.36 265.105-70.2 306.092-300.18 92.249-229.99-213.843 70.21-306.092 300.18-92.248 229.98 213.842Z" stroke="url(#C)"/><path d="m1741.98 292.217-96.61 298.808-307.08 65.735-210.47-233.074 96.61-298.808 307.08-65.735 210.47 233.074Z" stroke="url(#D)"/></g><defs><linearGradient id="b" x1="1091.93" y1="-104.118" x2="1121.96" y2="721.769" gradientUnits="userSpaceOnUse"><stop stop-color="#12C2E9"/><stop offset=".566" stop-color="#C471ED"/><stop offset="1" stop-color="#F64F59"/></linearGradient><linearGradient id="c" x1="1142.52" y1="-103.107" x2="1100.46" y2="722.254" gradientUnits="userSpaceOnUse"><stop stop-color="#12C2E9"/><stop offset=".566" stop-color="#C471ED"/><stop offset="1" stop-color="#F64F59"/></linearGradient><linearGradient id="d" x1="1192.93" y1="-98.71" x2="1079.09" y2="719.844" gradientUnits="userSpaceOnUse"><stop stop-color="#12C2E9"/><stop offset=".566" stop-color="#C471ED"/><stop offset="1" stop-color="#F64F59"/></linearGradient><linearGradient id="e" x1="1242.86" y1="-90.954" x2="1058.12" y2="714.564" gradientUnits="userSpaceOnUse"><stop stop-color="#12C2E9"/><stop offset=".566" stop-color="#C471ED"/><stop offset="1" stop-color="#F64F59"/></linearGradient><linearGradient id="f" x1="1292.02" y1="-79.895" x2="1037.78" y2="706.455" gradientUnits="userSpaceOnUse"><stop stop-color="#12C2E9"/><stop offset=".566" stop-color="#C471ED"/><stop offset="1" stop-color="#F64F59"/></linearGradient><linearGradient id="g" x1="1340.14" y1="-65.614" x2="1018.32" y2="695.585" gradientUnits="userSpaceOnUse"><stop stop-color="#12C2E9"/><stop offset=".566" stop-color="#C471ED"/><stop offset="1" stop-color="#F64F59"/></linearGradient><linearGradient id="h" x1="1386.91" y1="-48.213" x2="999.979" y2="682.042" gradientUnits="userSpaceOnUse"><stop stop-color="#12C2E9"/><stop offset=".566" stop-color="#C471ED"/><stop offset="1" stop-color="#F64F59"/></linearGradient><linearGradient id="i" x1="1432.09" y1="-27.824" x2="982.982" y2="665.928" gradientUnits="userSpaceOnUse"><stop stop-color="#12C2E9"/><stop offset=".566" stop-color="#C471ED"/><stop offset="1" stop-color="#F64F59"/></linearGradient><linearGradient id="j" x1="1475.42" y1="-4.59" x2="967.555" y2="647.38" gradientUnits="userSpaceOnUse"><stop stop-color="#12C2E9"/><stop offset=".566" stop-color="#C471ED"/><stop offset="1" stop-color="#F64F59"/></linearGradient><linearGradient id="k" x1="1516.65" y1="21.31" x2="953.899" y2="626.536" gradientUnits="userSpaceOnUse"><stop stop-color="#12C2E9"/><stop offset=".566" stop-color="#C471ED"/><stop offset="1" stop-color="#F64F59"/></linearGradient><linearGradient id="l" x1="1555.57" y1="49.685" x2="942.207" y2="603.561" gradientUnits="userSpaceOnUse"><stop stop-color="#12C2E9"/><stop offset=".566" stop-color="#C471ED"/><stop offset="1" stop-color="#F64F59"/></linearGradient><linearGradient id="m" x1="1591.96" y1="80.326" x2="932.662" y2="578.636" gradientUnits="userSpaceOnUse"><stop stop-color="#12C2E9"/><stop offset=".566" stop-color="#C471ED"/><stop offset="1" stop-color="#F64F59"/></linearGradient><linearGradient id="n" x1="1625.64" y1="113.002" x2="925.418" y2="551.953" gradientUnits="userSpaceOnUse"><stop stop-color="#12C2E9"/><stop offset=".566" stop-color="#C471ED"/><stop offset="1" stop-color="#F64F59"/></linearGradient><linearGradient id="o" x1="1656.44" y1="147.468" x2="920.625" y2="523.721" gradientUnits="userSpaceOnUse"><stop stop-color="#12C2E9"/><stop offset=".566" stop-color="#C471ED"/><stop offset="1" stop-color="#F64F59"/></linearGradient><linearGradient id="p" x1="1684.22" y1="183.47" x2="918.411" y2="494.161" gradientUnits="userSpaceOnUse"><stop stop-color="#12C2E9"/><stop offset=".566" stop-color="#C471ED"/><stop offset="1" stop-color="#F64F59"/></linearGradient><linearGradient id="q" x1="1708.85" y1="220.736" x2="918.874" y2="463.499" gradientUnits="userSpaceOnUse"><stop stop-color="#12C2E9"/><stop offset=".566" stop-color="#C471ED"/><stop offset="1" stop-color="#F64F59"/></linearGradient><linearGradient id="r" x1="1730.23" y1="258.985" x2="922.106" y2="431.974" gradientUnits="userSpaceOnUse"><stop stop-color="#12C2E9"/><stop offset=".566" stop-color="#C471ED"/><stop offset="1" stop-color="#F64F59"/></linearGradient><linearGradient id="s" x1="1748.3" y1="297.934" x2="928.17" y2="399.832" gradientUnits="userSpaceOnUse"><stop stop-color="#12C2E9"/><stop offset=".566" stop-color="#C471ED"/><stop offset="1" stop-color="#F64F59"/></linearGradient><linearGradient id="t" x1="1763" y1="337.289" x2="937.11" y2="367.321" gradientUnits="userSpaceOnUse"><stop stop-color="#12C2E9"/><stop offset=".566" stop-color="#C471ED"/><stop offset="1" stop-color="#F64F59"/></linearGradient><linearGradient id="u" x1="1774.3" y1="376.757" x2="948.944" y2="334.694" gradientUnits="userSpaceOnUse"><stop stop-color="#12C2E9"/><stop offset=".566" stop-color="#C471ED"/><stop offset="1" stop-color="#F64F59"/></linearGradient><linearGradient id="v" x1="1782.23" y1="416.041" x2="963.676" y2="302.203" gradientUnits="userSpaceOnUse"><stop stop-color="#12C2E9"/><stop offset=".566" stop-color="#C471ED"/><stop offset="1" stop-color="#F64F59"/></linearGradient><linearGradient id="w" x1="1786.79" y1="454.847" x2="981.277" y2="270.1" gradientUnits="userSpaceOnUse"><stop stop-color="#12C2E9"/><stop offset=".566" stop-color="#C471ED"/><stop offset="1" stop-color="#F64F59"/></linearGradient><linearGradient id="x" x1="1788.06" y1="492.881" x2="1001.71" y2="238.632" gradientUnits="userSpaceOnUse"><stop stop-color="#12C2E9"/><stop offset=".566" stop-color="#C471ED"/><stop offset="1" stop-color="#F64F59"/></linearGradient><linearGradient id="y" x1="1786.1" y1="529.863" x2="1024.9" y2="208.046" gradientUnits="userSpaceOnUse"><stop stop-color="#12C2E9"/><stop offset=".566" stop-color="#C471ED"/><stop offset="1" stop-color="#F64F59"/></linearGradient><linearGradient id="z" x1="1781.02" y1="565.513" x2="1050.77" y2="178.578" gradientUnits="userSpaceOnUse"><stop stop-color="#12C2E9"/><stop offset=".566" stop-color="#C471ED"/><stop offset="1" stop-color="#F64F59"/></linearGradient><linearGradient id="A" x1="1772.95" y1="599.565" x2="1079.2" y2="150.457" gradientUnits="userSpaceOnUse"><stop stop-color="#12C2E9"/><stop offset=".566" stop-color="#C471ED"/><stop offset="1" stop-color="#F64F59"/></linearGradient><linearGradient id="B" x1="1762.04" y1="631.765" x2="1110.07" y2="123.901" gradientUnits="userSpaceOnUse"><stop stop-color="#12C2E9"/><stop offset=".566" stop-color="#C471ED"/><stop offset="1" stop-color="#F64F59"/></linearGradient><linearGradient id="C" x1="1748.47" y1="661.872" x2="1143.24" y2="99.118" gradientUnits="userSpaceOnUse"><stop stop-color="#12C2E9"/><stop offset=".566" stop-color="#C471ED"/><stop offset="1" stop-color="#F64F59"/></linearGradient><linearGradient id="D" x1="1732.41" y1="689.662" x2="1178.54" y2="76.3" gradientUnits="userSpaceOnUse"><stop stop-color="#12C2E9"/><stop offset=".566" stop-color="#C471ED"/><stop offset="1" stop-color="#F64F59"/></linearGradient></defs></svg>