<svg width="1453" height="776" viewBox="0 0 1453 776" fill="none" xmlns="http://www.w3.org/2000/svg">
<path opacity="0.6" fill-rule="evenodd" clip-rule="evenodd" d="M952.352 114.638L853.633 171.109V284.555L952.352 341.026L1051.3 284.423V171.241L952.352 114.638ZM952.352 113L852.807 169.943L753.262 113L653.361 170.147L553.461 113L453.916 169.943L354.371 113L254 170.416V285.248L353.545 342.192V456.191L254 513.135V627.967L354.371 685.383L453.916 628.44L553.461 685.383L653.361 628.236L753.262 685.383L852.807 628.44L952.352 685.383L1052.25 628.236L1152.15 685.383L1252.05 628.236L1351.95 685.383L1452.32 627.967V513.135L1352.07 455.785V342.598L1452.32 285.248V170.416L1351.95 113L1252.05 170.147L1152.15 113L1052.25 170.147L952.352 113ZM653.361 285.518L752.435 342.192V456.191L653.361 512.866L554.287 456.191V342.192L653.361 285.518ZM753.262 114.638L851.98 171.109V284.555L753.262 341.026L654.313 284.423V171.241L753.262 114.638ZM851.98 513.828V627.274L753.262 683.745L654.313 627.142V513.96L753.262 457.357L851.98 513.828ZM853.633 627.274V513.828L952.352 457.357L1051.3 513.96V627.142L952.352 683.745L853.633 627.274ZM453.09 627.274V513.828L354.371 457.357L255.422 513.96V627.142L354.371 683.745L453.09 627.274ZM454.742 513.828V627.274L553.461 683.745L652.41 627.142V513.96L553.461 457.357L454.742 513.828ZM553.461 341.026L454.742 284.555V171.109L553.461 114.638L652.41 171.241V284.423L553.461 341.026ZM453.09 284.555V171.109L354.371 114.638L255.422 171.241V284.423L354.371 341.026L453.09 284.555ZM1053.2 513.96L1152.15 457.357L1251.1 513.96V627.142L1152.15 683.745L1053.2 627.142V513.96ZM1351.95 457.357L1253 513.96V627.142L1351.95 683.745L1450.9 627.142V513.96L1351.95 457.357ZM1053.2 171.241L1152.15 114.638L1251.1 171.241V284.423L1152.15 341.026L1053.2 284.423V171.241ZM1351.95 114.638L1253 171.241V284.423L1351.95 341.026L1450.9 284.423V171.241L1351.95 114.638ZM453.916 285.998L354.967 342.6V455.783L453.916 512.385L552.865 455.783V342.6L453.916 285.998ZM1152.98 342.468L1251.7 285.998L1350.65 342.6V455.783L1251.7 512.385L1152.98 455.915V342.468ZM852.807 286.663L754.435 342.935V455.448L852.807 511.72L951.178 455.448V342.935L852.807 286.663ZM954.236 342.935L1052.61 286.663L1150.98 342.935V455.448L1052.61 511.72L954.236 455.448V342.935Z" fill="url(#paint0_linear_484_212)"/>
<rect x="1452" y="558" width="1452" height="558" transform="rotate(-180 1452 558)" fill="url(#paint1_linear_484_212)"/>
<rect y="364" width="1452" height="412" fill="url(#paint2_linear_484_212)"/>
<rect x="657" width="694" height="657" transform="rotate(90 657 0)" fill="url(#paint3_linear_484_212)"/>
<defs>
<linearGradient id="paint0_linear_484_212" x1="856.029" y1="-6.13236" x2="856.029" y2="745.634" gradientUnits="userSpaceOnUse">
<stop stop-color="#12C2E9"/>
<stop offset="0.565619" stop-color="#C471ED"/>
<stop offset="1" stop-color="#F64F59"/>
</linearGradient>
<linearGradient id="paint1_linear_484_212" x1="2178" y1="558" x2="2178" y2="1116" gradientUnits="userSpaceOnUse">
<stop stop-color="#131112" stop-opacity="0"/>
<stop offset="0.773014" stop-color="#131112"/>
</linearGradient>
<linearGradient id="paint2_linear_484_212" x1="726" y1="364" x2="726" y2="776" gradientUnits="userSpaceOnUse">
<stop stop-color="#131112" stop-opacity="0"/>
<stop offset="0.773014" stop-color="#131112"/>
</linearGradient>
<linearGradient id="paint3_linear_484_212" x1="1004" y1="0" x2="1004" y2="657" gradientUnits="userSpaceOnUse">
<stop stop-color="#131112" stop-opacity="0"/>
<stop offset="0.773014" stop-color="#131112"/>
</linearGradient>
</defs>
</svg>
